<?xml version="1.0" encoding="UTF-8" standalone="no"?>
<!-- Created with Inkscape (http://www.inkscape.org/) -->

<svg
   version="1.1"
   id="svg2"
   width="512"
   height="512"
   viewBox="0 0 512 512"
   sodipodi:docname="technical-support.eps"
   xmlns:inkscape="http://www.inkscape.org/namespaces/inkscape"
   xmlns:sodipodi="http://sodipodi.sourceforge.net/DTD/sodipodi-0.dtd"
   xmlns="http://www.w3.org/2000/svg"
   xmlns:svg="http://www.w3.org/2000/svg">
  <defs
     id="defs6" />
  <sodipodi:namedview
     id="namedview4"
     pagecolor="#ffffff"
     bordercolor="#000000"
     borderopacity="0.25"
     inkscape:showpageshadow="2"
     inkscape:pageopacity="0.0"
     inkscape:pagecheckerboard="0"
     inkscape:deskcolor="#d1d1d1" />
  <g
     id="g8"
     inkscape:groupmode="layer"
     inkscape:label="ink_ext_XXXXXX"
     transform="matrix(1.3333333,0,0,-1.3333333,0,512)">
    <g
       id="g10"
       transform="scale(0.065)">
      <path
         d="m 2915.21,1490.65 c 1209.17,0 2195.38,986.22 2195.38,2195.38 0,1209.18 -986.21,2195.39 -2195.38,2195.39 -1209.17,0 -2195.382,-986.21 -2195.382,-2195.39 0,-1209.16 986.212,-2195.38 2195.382,-2195.38"
         style="fill:#e8e8e7;fill-opacity:1;fill-rule:evenodd;stroke:none"
         id="path62" />
      <path
         d="M 4784.68,5360.02 H 4400.85 L 4068.44,5168.1 3876.53,4835.69 v -383.83 l 191.91,-332.4 332.42,-191.92 h 383.82 l 332.42,191.92 191.9,332.4 v 383.83 l -191.9,332.41 z m -357.33,521.4 h 330.83 l 72.35,-350.32 237.81,267.22 286.5,-165.42 -112.52,-339.56 339.57,112.52 165.42,-286.51 -267.23,-237.82 350.33,-72.34 v -330.83 l -350.33,-72.34 267.21,-237.81 -165.4,-286.51 -339.57,112.52 112.52,-339.56 -286.5,-165.42 -237.82,267.22 -72.34,-350.32 h -330.84 l -72.33,350.32 -237.81,-267.22 -286.52,165.42 112.51,339.56 -339.55,-112.52 -165.41,286.51 267.21,237.81 -350.32,72.34 v 330.84 l 350.34,72.34 -267.23,237.81 165.41,286.51 339.55,-112.52 -112.49,339.56 286.5,165.42 237.81,-267.22 72.34,350.32 v 0"
         style="fill:#7a7b7d;fill-opacity:1;fill-rule:evenodd;stroke:none"
         id="path64" />
      <path
         d="m 4741.89,5208.52 c -311.9,82.37 -631.51,-103.72 -713.86,-415.62 -82.36,-311.89 103.71,-631.5 415.6,-713.87 311.92,-82.36 631.52,103.72 713.88,415.62 82.37,311.9 -103.71,631.51 -415.62,713.87 z m 107.94,408.77 c 537.66,-141.98 858.42,-692.92 716.45,-1230.58 -141.97,-537.65 -692.92,-858.42 -1230.58,-716.45 -537.66,141.98 -858.41,692.93 -716.45,1230.59 141.97,537.65 692.93,858.41 1230.58,716.44 v 0"
         style="fill:#949595;fill-opacity:1;fill-rule:evenodd;stroke:none"
         id="path66" />
      <path
         d="m 4656.69,4885.81 88.82,-88.18 88.82,-88.19 -31.96,-121.01 -31.96,-121.01 -120.76,-32.84 -120.78,-32.84 -88.84,88.19 -88.82,88.17 31.95,121.03 31.96,121.01 120.79,32.84 120.78,32.83"
         style="fill:#949595;fill-opacity:1;fill-rule:evenodd;stroke:none"
         id="path68" />
      <path
         d="m 1408.27,1717.21 -80.72,-34.75 c -30.42,-13.08 -58.43,-31.18 -82.87,-53.5 -10.25,-9.36 -24.75,-12.45 -37.93,-8.09 -13.17,4.36 -22.96,15.5 -25.59,29.14 -11.05,57.27 7.11,116.29 48.43,157.45 40.95,40.81 72.87,89.76 93.69,143.69 12.28,31.79 38.83,55.93 71.67,65.13 l 18.58,-31.42 32.7,-20.25 c 40.93,-25.32 73.39,-62.27 93.22,-106.14 l -131.18,-141.26"
         style="fill:#5b1e62;fill-opacity:1;fill-rule:evenodd;stroke:none"
         id="path70" />
      <path
         d="m 2481.25,1124.45 73.78,-47.77 c 27.79,-17.97 58.4,-31.21 90.56,-39.1 13.47,-3.3 24.11,-13.63 27.81,-27.01 3.7,-13.379 -0.12,-27.699 -9.98,-37.468 -41.46,-41.039 -100.6,-58.782 -157.79,-47.332 -56.68,11.332 -115.13,10.621 -171.52,-2.059 -33.26,-7.5 -68.09,1.16 -93.99,23.32 l 15.79,32.93 -1.38,38.419 c -1.72,48.12 10.94,95.63 36.36,136.53 l 190.36,-30.46"
         style="fill:#5b1e62;fill-opacity:1;fill-rule:evenodd;stroke:none"
         id="path72" />
      <path
         d="m 894.34,4684.19 h 2439.62 c 81.52,0 151.67,34.75 201.1,99.59 47.54,62.39 120.16,102.17 200,107.55 144.76,9.74 289.64,-17.15 421.25,-78.21 39.07,-18.13 30.62,-72.55 -10.98,-83.71 l -289.74,-77.62 c -91.86,-24.61 -1.57,-386.25 133.32,-351.84 l 268.93,68.6 c 30.28,7.73 54.78,-25.5 38.43,-52.13 -80.6,-131.3 -208.98,-226.24 -358.14,-264.83 -82.46,-21.33 -170.01,-8.47 -242.86,35.68 -39.28,23.82 -74.2,52.25 -104.39,84.19 -49.54,52.41 -111.61,79.15 -183.73,79.15 H 967.539 c -81.527,0 -151.68,-34.75 -201.09,-99.58 -47.547,-62.39 -120.179,-102.18 -200.019,-107.55 -144.754,-9.75 -289.629,17.14 -421.239,78.2 -39.074,18.13 -30.636,72.55 10.981,83.7 l 289.734,77.64 c 91.852,24.61 1.578,386.25 -133.316,351.84 L 43.6563,4566.25 c -30.2774,-7.72 -54.7696,25.51 -38.42192,52.14 80.59762,131.3 208.97662,226.23 358.12062,264.82 82.458,21.34 170.036,8.47 242.868,-35.68 39.297,-23.81 74.187,-52.24 104.386,-84.19 49.543,-52.41 111.614,-79.15 183.731,-79.15"
         style="fill:#b1b1b0;fill-opacity:1;fill-rule:evenodd;stroke:none"
         id="path74" />
      <path
         d="M 312.59,4634.86 43.6563,4566.25 c -30.2774,-7.72 -54.7696,25.51 -38.42192,52.14 80.59762,131.3 208.97662,226.23 358.12062,264.82 82.458,21.34 170.036,8.47 242.868,-35.68 223.91,-135.7 305.281,-421.11 186.605,-654.49 -43.859,-86.26 -129.859,-143.07 -226.398,-149.56 -144.754,-9.75 -289.629,17.14 -421.239,78.2 -39.074,18.13 -30.636,72.55 10.981,83.7 l 289.734,77.64 c 91.852,24.61 1.578,386.25 -133.316,351.84"
         style="fill:#cdccca;fill-opacity:1;fill-rule:evenodd;stroke:none"
         id="path76" />
      <path
         d="m 3988.91,4299.95 268.93,68.6 c 30.28,7.73 54.78,-25.5 38.43,-52.13 -80.6,-131.3 -208.98,-226.24 -358.14,-264.83 -82.46,-21.33 -170.01,-8.47 -242.86,35.68 -223.91,135.71 -305.28,421.11 -186.61,654.5 43.86,86.24 129.88,143.06 226.4,149.56 144.76,9.75 289.64,-17.15 421.25,-78.21 39.07,-18.13 30.62,-72.55 -10.98,-83.71 l -289.74,-77.62 c -91.86,-24.61 -1.57,-386.25 133.32,-351.84"
         style="fill:#cdccca;fill-opacity:1;fill-rule:evenodd;stroke:none"
         id="path78" />
      <path
         d="m 1319.03,4580.65 h 1663.43 c 58.87,0 107.02,-48.16 107.02,-107.02 v 0 c 0,-58.86 -48.15,-107.02 -107.02,-107.02 H 1319.03 c -58.86,0 -107.02,48.16 -107.02,107.02 v 0 c 0,58.86 48.16,107.02 107.02,107.02"
         style="fill:#949595;fill-opacity:1;fill-rule:evenodd;stroke:none"
         id="path80" />
      <path
         d="m 1758.3,4100.47 26.17,32.39 c 14.96,18.49 24.58,40.74 27.8,64.32 3.63,26.71 20.23,49.91 44.34,61.97 64.08,32.08 -69.84,76.85 -93.5,-8.54 h -201.97 l 44.88,-112.21 c 11.54,-28.86 36.26,-50.42 66.43,-57.94 30.17,-7.51 66.65,-3.73 85.85,20.01"
         style="fill:#f1485f;fill-opacity:1;fill-rule:evenodd;stroke:none"
         id="path82" />
      <path
         d="m 2735.21,4100.47 -26.19,32.39 c -14.97,18.49 -24.57,40.74 -27.78,64.32 -3.65,26.71 -20.24,49.91 -44.36,61.97 -64.07,32.08 69.83,76.85 93.51,-8.54 h 201.97 l -44.88,-112.21 c -11.55,-28.86 -36.26,-50.42 -66.44,-57.94 -30.17,-7.51 -66.64,-3.73 -85.83,20.01"
         style="fill:#f1485f;fill-opacity:1;fill-rule:evenodd;stroke:none"
         id="path84" />
      <path
         d="m 2525.21,2494.37 -46.7,-642.7 c -0.78,-37.15 -6.31,-74.04 -16.46,-109.77 l 19.2,-617.45 -139.95,-24.69 c -50.44,-8.91 -101.78,9.95 -134.46,49.38 l -19.22,139.97 c -24.3,177.05 -23.19,406.49 68.61,559.81 l -43.91,463.78 c -9.26,59.72 16.46,119.46 66.19,153.79 22.53,15.55 245.51,28.32 246.7,27.88"
         style="fill:#c51e25;fill-opacity:1;fill-rule:evenodd;stroke:none"
         id="path86" />
      <path
         d="m 2324.83,2356.61 -214.04,-474.75 c -34.24,-75.94 -104.36,-129.56 -186.61,-142.7 l -515.91,-21.95 -5.5,78.76 c -4.94,71.03 23.46,140.31 76.84,187.42 l 395.17,16.48 101.54,285.39 -5.49,60.37 c -9.14,100.5 41.29,197.06 128.98,246.98 l 425.4,-24.69 v -73.55 l -200.38,-137.76"
         style="fill:#dc1e25;fill-opacity:1;fill-rule:evenodd;stroke:none"
         id="path88" />
      <path
         d="m 2435.86,3483.66 33.93,58.38 c 95.52,164.32 162.64,343.57 198.54,530.21 6.15,31.94 31.84,56.49 64.02,61.18 42.37,6.17 85.19,-7.84 115.72,-37.86 30.52,-30.03 45.25,-72.62 39.77,-115.08 -37.03,-287.24 -143.68,-560.85 -310.38,-797.13 29.32,-130.66 53.19,-262.51 71.54,-395.21 14.21,-102.77 -34.57,-204.06 -123.79,-257.01 l -82.02,-1.66 c -161.21,-3.25 -320.13,-38.85 -467.3,-104.71 l -54.11,69.61 c -22.33,28.73 -37.39,62.43 -43.9,98.23 -33.43,183.82 -24.49,389.21 16.74,582.47 -170.07,238.16 -278.81,514.8 -316.27,805.41 -5.48,42.46 9.24,85.05 39.77,115.08 30.53,30.02 73.35,44.03 115.73,37.86 32.18,-4.69 57.86,-29.24 64.01,-61.18 35.9,-186.64 103.02,-365.89 198.54,-530.21 l 57.91,-99.62 198.54,-20.39 183.01,61.63"
         style="fill:#5b1e62;fill-opacity:1;fill-rule:evenodd;stroke:none"
         id="path90" />
      <path
         d="m 2106.78,3730.56 c -19.09,-8.9 -25.22,-36.18 -13.68,-60.95 11.54,-24.77 36.37,-37.64 55.46,-28.75 19.1,8.89 25.22,36.18 13.68,60.96 -11.54,24.76 -36.37,37.63 -55.46,28.74 z m 291.31,0 c 19.1,-8.9 25.22,-36.18 13.68,-60.95 -11.53,-24.77 -36.36,-37.64 -55.46,-28.75 -19.09,8.89 -25.21,36.18 -13.68,60.96 11.54,24.76 36.37,37.63 55.46,28.74 v 0"
         style="fill:#e43140;fill-opacity:1;fill-rule:evenodd;stroke:none"
         id="path92" />
      <path
         d="m 2170.63,3630.81 -23.17,-206.28 104.98,-20.39 104.98,20.39 -23.17,206.28 -81.81,-0.99 -81.81,0.99"
         style="fill:#f1485f;fill-opacity:1;fill-rule:evenodd;stroke:none"
         id="path94" />
      <path
         d="m 2298,3412.99 59.42,11.54 -23.17,206.28 -81.81,-0.99 -74.41,0.91 -9.59,-89.3 c -4.54,-42.37 17.66,-81.18 56.5,-98.73 l 49.54,-22.38 c 7.77,-3.51 15.63,-5.96 23.52,-7.33"
         style="fill:#e43140;fill-opacity:1;fill-rule:evenodd;stroke:none"
         id="path96" />
      <path
         d="m 2133.75,3817.31 -26.11,-243.21 c -4.55,-42.38 17.65,-81.18 56.5,-98.73 l 49.54,-22.39 c 25.53,-11.54 51.99,-11.54 77.53,0 l 49.53,22.39 c 38.84,17.55 61.05,56.35 56.5,98.73 l -26.12,243.21 -118.68,-1.7 -118.69,1.7"
         style="fill:#f1485f;fill-opacity:1;fill-rule:evenodd;stroke:none"
         id="path98" />
      <path
         d="m 2191.27,3551.89 c -1.13,-17.15 8.13,-32.67 23.95,-39.82 l 20.88,-9.42 c 10.77,-4.87 21.91,-4.87 32.67,0 l 20.87,9.42 c 15.82,7.15 25.09,22.67 23.96,39.82 h -122.33"
         style="fill:#ffffff;fill-opacity:1;fill-rule:evenodd;stroke:none"
         id="path100" />
      <path
         d="m 2382.51,3711.31 15.31,68.37 c 5.95,26.59 9.33,53.68 10.08,80.91 0.27,10.13 -6.03,19.27 -15.59,22.62 -14.02,4.91 -28.5,8.44 -43.21,10.55 l -6.54,12.56 c -8.45,16.27 -19.29,31.17 -32.15,44.23 -6.28,6.36 -15.6,8.69 -24.13,6.02 -67.48,-21.07 -130.63,-54.1 -186.44,-97.48 -8.4,-6.54 -11.12,-18.04 -6.53,-27.65 l 28.37,-126.55 17.87,94.39 7.91,-14.56 c 8.47,-15.6 25.11,-24.97 42.83,-24.13 58.46,2.76 115.56,18.56 167.13,46.23 l 25.09,-95.51"
         style="fill:#2e2d2d;fill-opacity:1;fill-rule:evenodd;stroke:none"
         id="path102" />
      <path
         d="m 2280.85,3721.04 -0.22,-28.65 39.9,1.62 c 2.15,0.12 4.28,-0.56 6.28,-1.99 l 12.05,-10.35 5.43,12.34 c -4.13,10.58 -9.71,18.84 -16.12,23.88 -3.05,2.4 -6.32,3.62 -9.63,3.57 l -37.69,-0.42"
         style="fill:#2e2d2d;fill-opacity:1;fill-rule:evenodd;stroke:none"
         id="path104" />
      <path
         d="m 2305.45,3638.05 c 9.08,0 16.48,10.08 16.48,22.44 0,12.36 -7.4,22.44 -16.48,22.44 -9.08,0 -16.48,-10.08 -16.48,-22.44 0,-12.36 7.4,-22.44 16.48,-22.44"
         style="fill:#2e2d2d;fill-opacity:1;fill-rule:evenodd;stroke:none"
         id="path106" />
      <path
         d="m 2224.02,3721.04 0.22,-28.65 -39.89,1.62 c -2.15,0.12 -4.29,-0.56 -6.29,-1.99 l -12.04,-10.35 -5.44,12.34 c 4.14,10.58 9.71,18.84 16.12,23.88 3.06,2.4 6.33,3.62 9.63,3.57 l 37.69,-0.42"
         style="fill:#2e2d2d;fill-opacity:1;fill-rule:evenodd;stroke:none"
         id="path108" />
      <path
         d="m 2199.43,3638.05 c 9.08,0 16.48,10.08 16.48,22.44 0,12.36 -7.4,22.44 -16.48,22.44 -9.08,0 -16.48,-10.08 -16.48,-22.44 0,-12.36 7.4,-22.44 16.48,-22.44"
         style="fill:#2e2d2d;fill-opacity:1;fill-rule:evenodd;stroke:none"
         id="path110" />
      <path
         d="m 2252.44,3594.85 c 14.68,0 26.59,5.03 26.59,0.11 0,-4.9 -11.91,-30.47 -26.59,-30.47 -14.69,0 -26.6,25.57 -26.6,30.47 0,4.92 11.91,-0.11 26.6,-0.11"
         style="fill:#e43140;fill-opacity:1;fill-rule:evenodd;stroke:none"
         id="path112" />
    </g>
  </g>
</svg>
